<mxfile host="app.diagrams.net" modified="2021-10-11T05:32:10.144Z" agent="5.0 (Windows NT 10.0; Win64; x64) AppleWebKit/537.36 (KHTML, like Gecko) Chrome/94.0.4606.81 Safari/537.36" etag="iEkZEoh_xwv-IB2S2CzL" version="15.5.0" type="github">
  <diagram id="pW8Zmjn-Uf6OqEqTr8yT" name="Page-1">
    <mxGraphModel dx="1038" dy="556" grid="1" gridSize="10" guides="1" tooltips="1" connect="1" arrows="1" fold="1" page="1" pageScale="1" pageWidth="827" pageHeight="1169" math="0" shadow="0">
      <root>
        <mxCell id="0" />
        <mxCell id="1" parent="0" />
        <mxCell id="sS3LAVikwLObQognXDlV-7" style="edgeStyle=orthogonalEdgeStyle;rounded=0;orthogonalLoop=1;jettySize=auto;html=1;" edge="1" parent="1" source="sS3LAVikwLObQognXDlV-2" target="sS3LAVikwLObQognXDlV-3">
          <mxGeometry relative="1" as="geometry" />
        </mxCell>
        <mxCell id="sS3LAVikwLObQognXDlV-2" value="基础知识学习" style="rounded=1;whiteSpace=wrap;html=1;" vertex="1" parent="1">
          <mxGeometry x="140" y="60" width="120" height="60" as="geometry" />
        </mxCell>
        <mxCell id="sS3LAVikwLObQognXDlV-8" style="edgeStyle=orthogonalEdgeStyle;rounded=0;orthogonalLoop=1;jettySize=auto;html=1;" edge="1" parent="1" source="sS3LAVikwLObQognXDlV-3" target="sS3LAVikwLObQognXDlV-4">
          <mxGeometry relative="1" as="geometry" />
        </mxCell>
        <mxCell id="sS3LAVikwLObQognXDlV-3" value="数据处理" style="rounded=1;whiteSpace=wrap;html=1;" vertex="1" parent="1">
          <mxGeometry x="140" y="170" width="120" height="60" as="geometry" />
        </mxCell>
        <mxCell id="sS3LAVikwLObQognXDlV-9" style="edgeStyle=orthogonalEdgeStyle;rounded=0;orthogonalLoop=1;jettySize=auto;html=1;" edge="1" parent="1" source="sS3LAVikwLObQognXDlV-4" target="sS3LAVikwLObQognXDlV-5">
          <mxGeometry relative="1" as="geometry" />
        </mxCell>
        <mxCell id="sS3LAVikwLObQognXDlV-4" value="模型设计" style="rounded=1;whiteSpace=wrap;html=1;" vertex="1" parent="1">
          <mxGeometry x="140" y="280" width="120" height="60" as="geometry" />
        </mxCell>
        <mxCell id="sS3LAVikwLObQognXDlV-10" style="edgeStyle=orthogonalEdgeStyle;rounded=0;orthogonalLoop=1;jettySize=auto;html=1;" edge="1" parent="1" source="sS3LAVikwLObQognXDlV-5" target="sS3LAVikwLObQognXDlV-6">
          <mxGeometry relative="1" as="geometry" />
        </mxCell>
        <mxCell id="sS3LAVikwLObQognXDlV-5" value="模型优化" style="rounded=1;whiteSpace=wrap;html=1;" vertex="1" parent="1">
          <mxGeometry x="140" y="390" width="120" height="60" as="geometry" />
        </mxCell>
        <mxCell id="sS3LAVikwLObQognXDlV-6" value="总结" style="rounded=1;whiteSpace=wrap;html=1;" vertex="1" parent="1">
          <mxGeometry x="140" y="490" width="120" height="60" as="geometry" />
        </mxCell>
      </root>
    </mxGraphModel>
  </diagram>
</mxfile>
